<?xml version="1.0" encoding="utf-8"?>
<!-- Generator: Adobe Illustrator 22.0.1, SVG Export Plug-In . SVG Version: 6.00 Build 0)  -->
<svg version="1.1" id="Layer_1" xmlns="http://www.w3.org/2000/svg" xmlns:xlink="http://www.w3.org/1999/xlink" x="0px" y="0px"
	 viewBox="0 0 240.9 49.8" style="enable-background:new 0 0 240.9 49.8;" xml:space="preserve">
<style type="text/css">
	.st0{fill:#D3D3D3;}
	.st1{fill:#FFFFFF;}
</style>
<g>
	<path class="st0" d="M19,0.1v7.6H9.1c-0.9,0-1.5,0.7-1.5,1.5v9.9H19v7.6H7.6v22.8H0V7.7c0-4.2,3.4-7.6,7.6-7.6H19z"/>
	<path class="st0" d="M34.6,49.5H27V0.1h7.6V49.5z"/>
	<path class="st0" d="M50.1,7.7v41.8h-7.6V7.7H50.1z"/>
	<path class="st0" d="M80.9,29.2V7.7H65.7c-4.2,0-7.6,3.4-7.6,7.6v2.7v6.2v4c0,4.2,3.4,7.6,7.6,7.6v-9.1v-2.3v-0.5v-6.2v-0.9
		c0-0.9,0.7-1.5,1.5-1.5h6.1v14.4"/>
	<path class="st0" d="M73.3,22.3v18.3c0,0.9-0.7,1.5-1.5,1.5H58.1v7.6h15.2c4.2,0,7.6-3.4,7.6-7.6V21.8"/>
	<path class="st0" d="M88.9,49.5V0.1h7.6v7.6h7.6c4.2,0,7.6,3.4,7.6,7.6v34.2h-7.6V16.8c0-0.9-0.7-1.5-1.5-1.5h-6.1v34.2H88.9z"/>
	<path class="st0" d="M128.8,41.9h4.2v7.6h-6.6c-3.7,0-6.7-3.4-6.7-7.6V0.1h7.6v7.6h5.7v7.6h-5.7v25.1
		C127.3,41.2,128,41.9,128.8,41.9z"/>
</g>
<path class="st1" d="M169.1,7.7v42.1h-7.7V29h-9.9v20.8h-7.7V7.7c0-4.3,3.3-7.7,7.2-7.7h10.8C165.8,0,169.1,3.4,169.1,7.7z
	 M161.4,9.7c0-0.9-0.7-1.6-1.5-1.6h-7.1c-0.8,0-1.4,0.7-1.4,1.6v11.1h9.9V9.7z"/>
<path class="st1" d="M197.9,0h-12.2h-8.2v29v20.8h8.2V29h12.2c4.1,0,7.4-3.7,7.4-8.3V8.3C205.3,3.7,202,0,197.9,0z M197.4,18.5
	c0,0.9-0.7,1.7-1.5,1.7h-10.2V8.8H196c0.8,0,1.5,0.7,1.5,1.6V18.5z"/>
<path class="st1" d="M233.5,0h-12.2h-8.2v29v20.8h8.2V29h12.2c4.1,0,7.4-3.7,7.4-8.3V8.3C240.9,3.7,237.6,0,233.5,0z M233,18.5
	c0,0.9-0.7,1.7-1.5,1.7h-10.2V8.8h10.2c0.8,0,1.5,0.7,1.5,1.6V18.5z"/>
</svg>
